<mxfile host="Electron" agent="Mozilla/5.0 (Macintosh; Intel Mac OS X 10_15_7) AppleWebKit/537.36 (KHTML, like Gecko) draw.io/26.0.9 Chrome/128.0.6613.186 Electron/32.2.5 Safari/537.36" version="26.0.9">
  <diagram id="-D4VKLdV0KatvRbbdM8r" name="Seite-1">
    <mxGraphModel dx="2532" dy="1486" grid="1" gridSize="10" guides="1" tooltips="1" connect="1" arrows="1" fold="1" page="1" pageScale="1" pageWidth="827" pageHeight="1169" math="1" shadow="0">
      <root>
        <mxCell id="0" />
        <mxCell id="1" parent="0" />
        <mxCell id="UDYNcGJ2D-jsFfVvRyrr-24" value="" style="group" parent="1" vertex="1" connectable="0">
          <mxGeometry x="350" y="209" width="90" height="80" as="geometry" />
        </mxCell>
        <mxCell id="UDYNcGJ2D-jsFfVvRyrr-25" value="" style="triangle;whiteSpace=wrap;html=1;" parent="UDYNcGJ2D-jsFfVvRyrr-24" vertex="1">
          <mxGeometry x="30" width="60" height="80" as="geometry" />
        </mxCell>
        <mxCell id="UDYNcGJ2D-jsFfVvRyrr-26" value="" style="rounded=0;whiteSpace=wrap;html=1;" parent="UDYNcGJ2D-jsFfVvRyrr-24" vertex="1">
          <mxGeometry width="30" height="80" as="geometry" />
        </mxCell>
        <mxCell id="UDYNcGJ2D-jsFfVvRyrr-27" value="u1" style="text;html=1;align=center;verticalAlign=middle;whiteSpace=wrap;rounded=0;fontSize=16;" parent="1" vertex="1">
          <mxGeometry x="350" y="289" width="90" height="30" as="geometry" />
        </mxCell>
        <mxCell id="UDYNcGJ2D-jsFfVvRyrr-28" value="" style="group;fillColor=default;" parent="1" vertex="1" connectable="0">
          <mxGeometry x="540" y="209" width="140" height="80" as="geometry" />
        </mxCell>
        <mxCell id="UDYNcGJ2D-jsFfVvRyrr-29" value="" style="endArrow=none;html=1;rounded=0;entryX=0;entryY=0;entryDx=0;entryDy=0;exitX=1;exitY=0;exitDx=0;exitDy=0;" parent="UDYNcGJ2D-jsFfVvRyrr-28" edge="1">
          <mxGeometry width="50" height="50" relative="1" as="geometry">
            <mxPoint x="80" as="sourcePoint" />
            <mxPoint as="targetPoint" />
          </mxGeometry>
        </mxCell>
        <mxCell id="UDYNcGJ2D-jsFfVvRyrr-30" value="" style="endArrow=none;html=1;rounded=0;entryX=1;entryY=0;entryDx=0;entryDy=0;exitX=1;exitY=0.5;exitDx=0;exitDy=0;" parent="UDYNcGJ2D-jsFfVvRyrr-28" edge="1">
          <mxGeometry width="50" height="50" relative="1" as="geometry">
            <mxPoint x="140" y="40" as="sourcePoint" />
            <mxPoint x="80" as="targetPoint" />
          </mxGeometry>
        </mxCell>
        <mxCell id="UDYNcGJ2D-jsFfVvRyrr-31" value="" style="endArrow=none;html=1;rounded=0;entryX=1;entryY=0.5;entryDx=0;entryDy=0;exitX=1;exitY=1;exitDx=0;exitDy=0;" parent="UDYNcGJ2D-jsFfVvRyrr-28" edge="1">
          <mxGeometry width="50" height="50" relative="1" as="geometry">
            <mxPoint x="80" y="80" as="sourcePoint" />
            <mxPoint x="140" y="40" as="targetPoint" />
          </mxGeometry>
        </mxCell>
        <mxCell id="UDYNcGJ2D-jsFfVvRyrr-32" value="" style="endArrow=none;html=1;rounded=0;entryX=1;entryY=1;entryDx=0;entryDy=0;exitX=0;exitY=1;exitDx=0;exitDy=0;" parent="UDYNcGJ2D-jsFfVvRyrr-28" edge="1">
          <mxGeometry width="50" height="50" relative="1" as="geometry">
            <mxPoint y="80" as="sourcePoint" />
            <mxPoint x="80" y="80" as="targetPoint" />
          </mxGeometry>
        </mxCell>
        <mxCell id="UDYNcGJ2D-jsFfVvRyrr-33" value="" style="endArrow=none;html=1;rounded=0;exitX=0;exitY=1;exitDx=0;exitDy=0;entryX=0;entryY=0;entryDx=0;entryDy=0;" parent="UDYNcGJ2D-jsFfVvRyrr-28" edge="1">
          <mxGeometry width="50" height="50" relative="1" as="geometry">
            <mxPoint y="80" as="sourcePoint" />
            <mxPoint as="targetPoint" />
          </mxGeometry>
        </mxCell>
        <mxCell id="UDYNcGJ2D-jsFfVvRyrr-34" value="&lt;p style=&quot;margin: 0px; font-variant-numeric: normal; font-variant-east-asian: normal; font-variant-alternates: normal; font-size-adjust: none; font-kerning: auto; font-optical-sizing: auto; font-feature-settings: normal; font-variation-settings: normal; font-variant-position: normal; font-stretch: normal; line-height: normal; font-family: Monaco; text-align: start;&quot; class=&quot;p1&quot;&gt;$$\sigma(x)=\frac{1}{1+e^{-x}}$$&lt;/p&gt;" style="text;html=1;align=center;verticalAlign=middle;whiteSpace=wrap;rounded=0;" parent="UDYNcGJ2D-jsFfVvRyrr-28" vertex="1">
          <mxGeometry x="30" y="25" width="60" height="30" as="geometry" />
        </mxCell>
        <mxCell id="7EMkF2CWvbv4STOrUGdc-1" value="Aktivierungsfunktion" style="text;html=1;align=center;verticalAlign=middle;whiteSpace=wrap;rounded=0;fontSize=16;" parent="1" vertex="1">
          <mxGeometry x="565" y="289" width="90" height="30" as="geometry" />
        </mxCell>
        <mxCell id="7EMkF2CWvbv4STOrUGdc-2" value="" style="group;fillColor=default;" parent="1" vertex="1" connectable="0">
          <mxGeometry x="780" y="219" width="140" height="80" as="geometry" />
        </mxCell>
        <mxCell id="7EMkF2CWvbv4STOrUGdc-3" value="" style="endArrow=none;html=1;rounded=0;entryX=0;entryY=0;entryDx=0;entryDy=0;exitX=1;exitY=0;exitDx=0;exitDy=0;" parent="7EMkF2CWvbv4STOrUGdc-2" edge="1">
          <mxGeometry width="50" height="50" relative="1" as="geometry">
            <mxPoint x="80" as="sourcePoint" />
            <mxPoint as="targetPoint" />
          </mxGeometry>
        </mxCell>
        <mxCell id="7EMkF2CWvbv4STOrUGdc-4" value="" style="endArrow=none;html=1;rounded=0;entryX=1;entryY=0;entryDx=0;entryDy=0;exitX=1;exitY=0.5;exitDx=0;exitDy=0;" parent="7EMkF2CWvbv4STOrUGdc-2" edge="1">
          <mxGeometry width="50" height="50" relative="1" as="geometry">
            <mxPoint x="140" y="40" as="sourcePoint" />
            <mxPoint x="80" as="targetPoint" />
          </mxGeometry>
        </mxCell>
        <mxCell id="7EMkF2CWvbv4STOrUGdc-5" value="" style="endArrow=none;html=1;rounded=0;entryX=1;entryY=0.5;entryDx=0;entryDy=0;exitX=1;exitY=1;exitDx=0;exitDy=0;" parent="7EMkF2CWvbv4STOrUGdc-2" edge="1">
          <mxGeometry width="50" height="50" relative="1" as="geometry">
            <mxPoint x="80" y="80" as="sourcePoint" />
            <mxPoint x="140" y="40" as="targetPoint" />
          </mxGeometry>
        </mxCell>
        <mxCell id="7EMkF2CWvbv4STOrUGdc-6" value="" style="endArrow=none;html=1;rounded=0;entryX=1;entryY=1;entryDx=0;entryDy=0;exitX=0;exitY=1;exitDx=0;exitDy=0;" parent="7EMkF2CWvbv4STOrUGdc-2" edge="1">
          <mxGeometry width="50" height="50" relative="1" as="geometry">
            <mxPoint y="80" as="sourcePoint" />
            <mxPoint x="80" y="80" as="targetPoint" />
          </mxGeometry>
        </mxCell>
        <mxCell id="7EMkF2CWvbv4STOrUGdc-7" value="" style="endArrow=none;html=1;rounded=0;exitX=0;exitY=1;exitDx=0;exitDy=0;entryX=0;entryY=0;entryDx=0;entryDy=0;" parent="7EMkF2CWvbv4STOrUGdc-2" edge="1">
          <mxGeometry width="50" height="50" relative="1" as="geometry">
            <mxPoint y="80" as="sourcePoint" />
            <mxPoint as="targetPoint" />
          </mxGeometry>
        </mxCell>
        <mxCell id="7EMkF2CWvbv4STOrUGdc-8" value="x" style="text;html=1;align=center;verticalAlign=middle;whiteSpace=wrap;rounded=0;" parent="7EMkF2CWvbv4STOrUGdc-2" vertex="1">
          <mxGeometry x="20" y="25" width="60" height="30" as="geometry" />
        </mxCell>
        <mxCell id="7EMkF2CWvbv4STOrUGdc-11" value="" style="endArrow=none;html=1;rounded=0;exitX=1;exitY=0.5;exitDx=0;exitDy=0;" parent="1" source="UDYNcGJ2D-jsFfVvRyrr-25" edge="1">
          <mxGeometry width="50" height="50" relative="1" as="geometry">
            <mxPoint x="750" y="309" as="sourcePoint" />
            <mxPoint x="540" y="249" as="targetPoint" />
          </mxGeometry>
        </mxCell>
        <mxCell id="7EMkF2CWvbv4STOrUGdc-12" value="" style="endArrow=none;html=1;rounded=0;" parent="1" edge="1">
          <mxGeometry width="50" height="50" relative="1" as="geometry">
            <mxPoint x="680" y="249" as="sourcePoint" />
            <mxPoint x="780" y="249" as="targetPoint" />
          </mxGeometry>
        </mxCell>
        <mxCell id="7EMkF2CWvbv4STOrUGdc-15" value="" style="ellipse;whiteSpace=wrap;html=1;aspect=fixed;" parent="1" vertex="1">
          <mxGeometry x="141" y="229" width="80" height="80" as="geometry" />
        </mxCell>
        <mxCell id="7EMkF2CWvbv4STOrUGdc-16" value="Eingabe 1" style="text;html=1;align=center;verticalAlign=middle;whiteSpace=wrap;rounded=0;fontSize=16;" parent="1" vertex="1">
          <mxGeometry x="136" y="309" width="90" height="30" as="geometry" />
        </mxCell>
        <mxCell id="7EMkF2CWvbv4STOrUGdc-17" value="" style="endArrow=none;html=1;rounded=0;exitX=1;exitY=0.5;exitDx=0;exitDy=0;entryX=0.5;entryY=1;entryDx=0;entryDy=0;edgeStyle=orthogonalEdgeStyle;" parent="1" source="7EMkF2CWvbv4STOrUGdc-15" edge="1" target="UDYNcGJ2D-jsFfVvRyrr-26">
          <mxGeometry width="50" height="50" relative="1" as="geometry">
            <mxPoint x="541" y="339" as="sourcePoint" />
            <mxPoint x="351" y="269" as="targetPoint" />
            <Array as="points">
              <mxPoint x="260" y="269" />
              <mxPoint x="260" y="330" />
              <mxPoint x="365" y="330" />
            </Array>
          </mxGeometry>
        </mxCell>
        <mxCell id="7EMkF2CWvbv4STOrUGdc-18" value="" style="endArrow=none;html=1;rounded=0;entryX=0;entryY=0.5;entryDx=0;entryDy=0;" parent="1" target="7EMkF2CWvbv4STOrUGdc-15" edge="1">
          <mxGeometry width="50" height="50" relative="1" as="geometry">
            <mxPoint x="1" y="269" as="sourcePoint" />
            <mxPoint x="541" y="339" as="targetPoint" />
          </mxGeometry>
        </mxCell>
        <mxCell id="7EMkF2CWvbv4STOrUGdc-19" value="" style="ellipse;whiteSpace=wrap;html=1;aspect=fixed;" parent="1" vertex="1">
          <mxGeometry x="136" y="539" width="80" height="80" as="geometry" />
        </mxCell>
        <mxCell id="7EMkF2CWvbv4STOrUGdc-20" value="Gewichtung 12/21" style="text;html=1;align=center;verticalAlign=middle;whiteSpace=wrap;rounded=0;fontSize=16;" parent="1" vertex="1">
          <mxGeometry x="131" y="629" width="90" height="30" as="geometry" />
        </mxCell>
        <mxCell id="7EMkF2CWvbv4STOrUGdc-24" value="" style="endArrow=none;html=1;rounded=0;exitX=1;exitY=0.5;exitDx=0;exitDy=0;edgeStyle=orthogonalEdgeStyle;" parent="1" source="7EMkF2CWvbv4STOrUGdc-19" edge="1">
          <mxGeometry width="50" height="50" relative="1" as="geometry">
            <mxPoint x="780" y="439" as="sourcePoint" />
            <mxPoint x="780" y="279" as="targetPoint" />
            <Array as="points">
              <mxPoint x="710" y="579" />
              <mxPoint x="710" y="279" />
            </Array>
          </mxGeometry>
        </mxCell>
        <mxCell id="7EMkF2CWvbv4STOrUGdc-25" value="" style="group;fillColor=default;" parent="1" vertex="1" connectable="0">
          <mxGeometry x="540" y="69" width="140" height="80" as="geometry" />
        </mxCell>
        <mxCell id="7EMkF2CWvbv4STOrUGdc-26" value="" style="endArrow=none;html=1;rounded=0;entryX=0;entryY=0;entryDx=0;entryDy=0;exitX=1;exitY=0;exitDx=0;exitDy=0;" parent="7EMkF2CWvbv4STOrUGdc-25" edge="1">
          <mxGeometry width="50" height="50" relative="1" as="geometry">
            <mxPoint x="80" as="sourcePoint" />
            <mxPoint as="targetPoint" />
          </mxGeometry>
        </mxCell>
        <mxCell id="7EMkF2CWvbv4STOrUGdc-27" value="" style="endArrow=none;html=1;rounded=0;entryX=1;entryY=0;entryDx=0;entryDy=0;exitX=1;exitY=0.5;exitDx=0;exitDy=0;" parent="7EMkF2CWvbv4STOrUGdc-25" edge="1">
          <mxGeometry width="50" height="50" relative="1" as="geometry">
            <mxPoint x="140" y="40" as="sourcePoint" />
            <mxPoint x="80" as="targetPoint" />
          </mxGeometry>
        </mxCell>
        <mxCell id="7EMkF2CWvbv4STOrUGdc-28" value="" style="endArrow=none;html=1;rounded=0;entryX=1;entryY=0.5;entryDx=0;entryDy=0;exitX=1;exitY=1;exitDx=0;exitDy=0;" parent="7EMkF2CWvbv4STOrUGdc-25" edge="1">
          <mxGeometry width="50" height="50" relative="1" as="geometry">
            <mxPoint x="80" y="80" as="sourcePoint" />
            <mxPoint x="140" y="40" as="targetPoint" />
          </mxGeometry>
        </mxCell>
        <mxCell id="7EMkF2CWvbv4STOrUGdc-29" value="" style="endArrow=none;html=1;rounded=0;entryX=1;entryY=1;entryDx=0;entryDy=0;exitX=0;exitY=1;exitDx=0;exitDy=0;" parent="7EMkF2CWvbv4STOrUGdc-25" edge="1">
          <mxGeometry width="50" height="50" relative="1" as="geometry">
            <mxPoint y="80" as="sourcePoint" />
            <mxPoint x="80" y="80" as="targetPoint" />
          </mxGeometry>
        </mxCell>
        <mxCell id="7EMkF2CWvbv4STOrUGdc-30" value="" style="endArrow=none;html=1;rounded=0;exitX=0;exitY=1;exitDx=0;exitDy=0;entryX=0;entryY=0;entryDx=0;entryDy=0;" parent="7EMkF2CWvbv4STOrUGdc-25" edge="1">
          <mxGeometry width="50" height="50" relative="1" as="geometry">
            <mxPoint y="80" as="sourcePoint" />
            <mxPoint as="targetPoint" />
          </mxGeometry>
        </mxCell>
        <mxCell id="7EMkF2CWvbv4STOrUGdc-31" value="&lt;p style=&quot;margin: 0px; font-variant-numeric: normal; font-variant-east-asian: normal; font-variant-alternates: normal; font-size-adjust: none; font-kerning: auto; font-optical-sizing: auto; font-feature-settings: normal; font-variation-settings: normal; font-variant-position: normal; font-stretch: normal; line-height: normal; font-family: Monaco; text-align: start;&quot; class=&quot;p1&quot;&gt;$$\sigma`(x)=\sigma(x)(1-\sigma(x))$$&lt;/p&gt;" style="text;html=1;align=center;verticalAlign=middle;whiteSpace=wrap;rounded=0;fontSize=10;" parent="7EMkF2CWvbv4STOrUGdc-25" vertex="1">
          <mxGeometry x="35" y="25" width="60" height="30" as="geometry" />
        </mxCell>
        <mxCell id="7EMkF2CWvbv4STOrUGdc-32" value="Aktivierungsfunktion&lt;div&gt;Ableitung&lt;/div&gt;" style="text;html=1;align=center;verticalAlign=middle;whiteSpace=wrap;rounded=0;fontSize=16;" parent="1" vertex="1">
          <mxGeometry x="565" y="159" width="90" height="30" as="geometry" />
        </mxCell>
        <mxCell id="7EMkF2CWvbv4STOrUGdc-33" value="" style="endArrow=none;html=1;rounded=0;edgeStyle=orthogonalEdgeStyle;exitX=1;exitY=0.5;exitDx=0;exitDy=0;" parent="1" source="UDYNcGJ2D-jsFfVvRyrr-25" edge="1">
          <mxGeometry width="50" height="50" relative="1" as="geometry">
            <mxPoint x="430" y="249" as="sourcePoint" />
            <mxPoint x="540" y="109" as="targetPoint" />
            <Array as="points">
              <mxPoint x="490" y="249" />
              <mxPoint x="490" y="109" />
            </Array>
          </mxGeometry>
        </mxCell>
        <mxCell id="7EMkF2CWvbv4STOrUGdc-34" value="" style="group;fillColor=default;" parent="1" vertex="1" connectable="0">
          <mxGeometry x="1260" y="80" width="140" height="80" as="geometry" />
        </mxCell>
        <mxCell id="7EMkF2CWvbv4STOrUGdc-35" value="" style="endArrow=none;html=1;rounded=0;entryX=0;entryY=0;entryDx=0;entryDy=0;exitX=1;exitY=0;exitDx=0;exitDy=0;" parent="7EMkF2CWvbv4STOrUGdc-34" edge="1">
          <mxGeometry width="50" height="50" relative="1" as="geometry">
            <mxPoint x="80" as="sourcePoint" />
            <mxPoint as="targetPoint" />
          </mxGeometry>
        </mxCell>
        <mxCell id="7EMkF2CWvbv4STOrUGdc-36" value="" style="endArrow=none;html=1;rounded=0;entryX=1;entryY=0;entryDx=0;entryDy=0;exitX=1;exitY=0.5;exitDx=0;exitDy=0;" parent="7EMkF2CWvbv4STOrUGdc-34" edge="1">
          <mxGeometry width="50" height="50" relative="1" as="geometry">
            <mxPoint x="140" y="40" as="sourcePoint" />
            <mxPoint x="80" as="targetPoint" />
          </mxGeometry>
        </mxCell>
        <mxCell id="7EMkF2CWvbv4STOrUGdc-37" value="" style="endArrow=none;html=1;rounded=0;entryX=1;entryY=0.5;entryDx=0;entryDy=0;exitX=1;exitY=1;exitDx=0;exitDy=0;" parent="7EMkF2CWvbv4STOrUGdc-34" edge="1">
          <mxGeometry width="50" height="50" relative="1" as="geometry">
            <mxPoint x="80" y="80" as="sourcePoint" />
            <mxPoint x="140" y="40" as="targetPoint" />
          </mxGeometry>
        </mxCell>
        <mxCell id="7EMkF2CWvbv4STOrUGdc-38" value="" style="endArrow=none;html=1;rounded=0;entryX=1;entryY=1;entryDx=0;entryDy=0;exitX=0;exitY=1;exitDx=0;exitDy=0;" parent="7EMkF2CWvbv4STOrUGdc-34" edge="1">
          <mxGeometry width="50" height="50" relative="1" as="geometry">
            <mxPoint y="80" as="sourcePoint" />
            <mxPoint x="80" y="80" as="targetPoint" />
          </mxGeometry>
        </mxCell>
        <mxCell id="7EMkF2CWvbv4STOrUGdc-39" value="" style="endArrow=none;html=1;rounded=0;exitX=0;exitY=1;exitDx=0;exitDy=0;entryX=0;entryY=0;entryDx=0;entryDy=0;" parent="7EMkF2CWvbv4STOrUGdc-34" edge="1">
          <mxGeometry width="50" height="50" relative="1" as="geometry">
            <mxPoint y="80" as="sourcePoint" />
            <mxPoint as="targetPoint" />
          </mxGeometry>
        </mxCell>
        <mxCell id="7EMkF2CWvbv4STOrUGdc-40" value="x" style="text;html=1;align=center;verticalAlign=middle;whiteSpace=wrap;rounded=0;" parent="7EMkF2CWvbv4STOrUGdc-34" vertex="1">
          <mxGeometry x="20" y="25" width="60" height="30" as="geometry" />
        </mxCell>
        <mxCell id="7EMkF2CWvbv4STOrUGdc-41" value="" style="endArrow=none;html=1;rounded=0;" parent="1" edge="1">
          <mxGeometry width="50" height="50" relative="1" as="geometry">
            <mxPoint x="680" y="109" as="sourcePoint" />
            <mxPoint x="1260" y="109" as="targetPoint" />
          </mxGeometry>
        </mxCell>
        <mxCell id="7EMkF2CWvbv4STOrUGdc-42" value="" style="triangle;whiteSpace=wrap;html=1;" parent="1" vertex="1">
          <mxGeometry x="1115" y="219" width="60" height="80" as="geometry" />
        </mxCell>
        <mxCell id="7EMkF2CWvbv4STOrUGdc-43" value="&lt;p style=&quot;margin: 0px; font-variant-numeric: normal; font-variant-east-asian: normal; font-variant-alternates: normal; font-size-adjust: none; font-kerning: auto; font-optical-sizing: auto; font-feature-settings: normal; font-variation-settings: normal; font-variant-position: normal; font-stretch: normal; font-size: 12px; line-height: normal; font-family: Monaco; text-align: start;&quot; class=&quot;p1&quot;&gt;$$\sum_{j\neq i} W_{ij}\rho(u_j)+b_i$$&lt;/p&gt;" style="text;html=1;align=center;verticalAlign=middle;whiteSpace=wrap;rounded=0;fontSize=16;" parent="1" vertex="1">
          <mxGeometry x="1100" y="309" width="90" height="30" as="geometry" />
        </mxCell>
        <mxCell id="7EMkF2CWvbv4STOrUGdc-45" value="" style="ellipse;whiteSpace=wrap;html=1;aspect=fixed;" parent="1" vertex="1">
          <mxGeometry x="135" y="379" width="80" height="80" as="geometry" />
        </mxCell>
        <mxCell id="7EMkF2CWvbv4STOrUGdc-46" value="Bias 1" style="text;html=1;align=center;verticalAlign=middle;whiteSpace=wrap;rounded=0;fontSize=16;" parent="1" vertex="1">
          <mxGeometry x="134" y="459" width="90" height="30" as="geometry" />
        </mxCell>
        <mxCell id="7EMkF2CWvbv4STOrUGdc-47" value="" style="endArrow=none;html=1;rounded=0;exitX=1;exitY=0.5;exitDx=0;exitDy=0;entryX=0;entryY=0.25;entryDx=0;entryDy=0;edgeStyle=orthogonalEdgeStyle;" parent="1" source="7EMkF2CWvbv4STOrUGdc-45" target="7EMkF2CWvbv4STOrUGdc-42" edge="1">
          <mxGeometry width="50" height="50" relative="1" as="geometry">
            <mxPoint x="580" y="299" as="sourcePoint" />
            <mxPoint x="630" y="249" as="targetPoint" />
            <Array as="points">
              <mxPoint x="1020" y="419" />
              <mxPoint x="1020" y="239" />
            </Array>
          </mxGeometry>
        </mxCell>
        <mxCell id="7EMkF2CWvbv4STOrUGdc-51" value="" style="endArrow=none;html=1;rounded=0;entryX=0;entryY=0.5;entryDx=0;entryDy=0;" parent="1" target="7EMkF2CWvbv4STOrUGdc-45" edge="1">
          <mxGeometry width="50" height="50" relative="1" as="geometry">
            <mxPoint y="418.56999999999994" as="sourcePoint" />
            <mxPoint x="130" y="419" as="targetPoint" />
          </mxGeometry>
        </mxCell>
        <mxCell id="7EMkF2CWvbv4STOrUGdc-52" value="" style="endArrow=none;html=1;rounded=0;entryX=0;entryY=0.5;entryDx=0;entryDy=0;" parent="1" edge="1">
          <mxGeometry width="50" height="50" relative="1" as="geometry">
            <mxPoint y="579" as="sourcePoint" />
            <mxPoint x="136" y="579" as="targetPoint" />
          </mxGeometry>
        </mxCell>
        <mxCell id="7EMkF2CWvbv4STOrUGdc-54" value="" style="endArrow=none;html=1;rounded=0;exitX=1;exitY=0.5;exitDx=0;exitDy=0;edgeStyle=orthogonalEdgeStyle;" parent="1" source="7EMkF2CWvbv4STOrUGdc-42" edge="1">
          <mxGeometry width="50" height="50" relative="1" as="geometry">
            <mxPoint x="1150" y="289" as="sourcePoint" />
            <mxPoint x="1260" y="139" as="targetPoint" />
            <Array as="points">
              <mxPoint x="1210" y="259" />
              <mxPoint x="1210" y="139" />
            </Array>
          </mxGeometry>
        </mxCell>
        <mxCell id="7EMkF2CWvbv4STOrUGdc-55" value="+" style="text;html=1;align=center;verticalAlign=middle;whiteSpace=wrap;rounded=0;" parent="1" vertex="1">
          <mxGeometry x="1115" y="229" width="15" height="20" as="geometry" />
        </mxCell>
        <mxCell id="7EMkF2CWvbv4STOrUGdc-56" value="+" style="text;html=1;align=center;verticalAlign=middle;whiteSpace=wrap;rounded=0;" parent="1" vertex="1">
          <mxGeometry x="1115" y="269" width="15" height="20" as="geometry" />
        </mxCell>
        <mxCell id="7EMkF2CWvbv4STOrUGdc-61" value="" style="triangle;whiteSpace=wrap;html=1;flipH=1;" parent="1" vertex="1">
          <mxGeometry x="350" width="60" height="80" as="geometry" />
        </mxCell>
        <mxCell id="7EMkF2CWvbv4STOrUGdc-62" value="+" style="text;html=1;align=center;verticalAlign=middle;whiteSpace=wrap;rounded=0;" parent="1" vertex="1">
          <mxGeometry x="395" y="10" width="15" height="20" as="geometry" />
        </mxCell>
        <mxCell id="7EMkF2CWvbv4STOrUGdc-63" value="-" style="text;html=1;align=center;verticalAlign=middle;whiteSpace=wrap;rounded=0;" parent="1" vertex="1">
          <mxGeometry x="395" y="50" width="15" height="20" as="geometry" />
        </mxCell>
        <mxCell id="7EMkF2CWvbv4STOrUGdc-64" value="" style="endArrow=none;html=1;rounded=0;entryX=1;entryY=0.5;entryDx=0;entryDy=0;edgeStyle=orthogonalEdgeStyle;" parent="1" target="7EMkF2CWvbv4STOrUGdc-62" edge="1">
          <mxGeometry width="50" height="50" relative="1" as="geometry">
            <mxPoint x="1400" y="119" as="sourcePoint" />
            <mxPoint x="1190" y="-71" as="targetPoint" />
            <Array as="points">
              <mxPoint x="1450" y="119" />
              <mxPoint x="1450" y="20" />
            </Array>
          </mxGeometry>
        </mxCell>
        <mxCell id="7EMkF2CWvbv4STOrUGdc-65" value="" style="endArrow=none;html=1;rounded=0;entryX=1;entryY=0.25;entryDx=0;entryDy=0;exitX=1;exitY=0.5;exitDx=0;exitDy=0;edgeStyle=orthogonalEdgeStyle;" parent="1" source="UDYNcGJ2D-jsFfVvRyrr-25" target="7EMkF2CWvbv4STOrUGdc-63" edge="1">
          <mxGeometry width="50" height="50" relative="1" as="geometry">
            <mxPoint x="560" y="149" as="sourcePoint" />
            <mxPoint x="610" y="99" as="targetPoint" />
            <Array as="points">
              <mxPoint x="490" y="249" />
              <mxPoint x="490" y="55" />
            </Array>
          </mxGeometry>
        </mxCell>
        <mxCell id="7EMkF2CWvbv4STOrUGdc-66" value="" style="endArrow=none;html=1;rounded=0;entryX=0;entryY=0.5;entryDx=0;entryDy=0;exitX=0;exitY=0.5;exitDx=0;exitDy=0;edgeStyle=orthogonalEdgeStyle;" parent="1" source="UDYNcGJ2D-jsFfVvRyrr-26" target="7EMkF2CWvbv4STOrUGdc-61" edge="1">
          <mxGeometry width="50" height="50" relative="1" as="geometry">
            <mxPoint x="380" y="219" as="sourcePoint" />
            <mxPoint x="430" y="169" as="targetPoint" />
            <Array as="points">
              <mxPoint x="350" y="250" />
              <mxPoint x="290" y="250" />
              <mxPoint x="290" y="40" />
            </Array>
          </mxGeometry>
        </mxCell>
        <mxCell id="7EMkF2CWvbv4STOrUGdc-67" value="" style="group" parent="1" vertex="1" connectable="0">
          <mxGeometry x="350" y="958" width="90" height="80" as="geometry" />
        </mxCell>
        <mxCell id="7EMkF2CWvbv4STOrUGdc-68" value="" style="triangle;whiteSpace=wrap;html=1;" parent="7EMkF2CWvbv4STOrUGdc-67" vertex="1">
          <mxGeometry x="30" width="60" height="80" as="geometry" />
        </mxCell>
        <mxCell id="7EMkF2CWvbv4STOrUGdc-69" value="" style="rounded=0;whiteSpace=wrap;html=1;" parent="7EMkF2CWvbv4STOrUGdc-67" vertex="1">
          <mxGeometry width="30" height="80" as="geometry" />
        </mxCell>
        <mxCell id="7EMkF2CWvbv4STOrUGdc-70" value="u2" style="text;html=1;align=center;verticalAlign=middle;whiteSpace=wrap;rounded=0;fontSize=16;" parent="1" vertex="1">
          <mxGeometry x="350" y="1038" width="90" height="30" as="geometry" />
        </mxCell>
        <mxCell id="7EMkF2CWvbv4STOrUGdc-71" value="" style="group;fillColor=default;" parent="1" vertex="1" connectable="0">
          <mxGeometry x="540" y="958" width="140" height="80" as="geometry" />
        </mxCell>
        <mxCell id="7EMkF2CWvbv4STOrUGdc-72" value="" style="endArrow=none;html=1;rounded=0;entryX=0;entryY=0;entryDx=0;entryDy=0;exitX=1;exitY=0;exitDx=0;exitDy=0;" parent="7EMkF2CWvbv4STOrUGdc-71" edge="1">
          <mxGeometry width="50" height="50" relative="1" as="geometry">
            <mxPoint x="80" as="sourcePoint" />
            <mxPoint as="targetPoint" />
          </mxGeometry>
        </mxCell>
        <mxCell id="7EMkF2CWvbv4STOrUGdc-73" value="" style="endArrow=none;html=1;rounded=0;entryX=1;entryY=0;entryDx=0;entryDy=0;exitX=1;exitY=0.5;exitDx=0;exitDy=0;" parent="7EMkF2CWvbv4STOrUGdc-71" edge="1">
          <mxGeometry width="50" height="50" relative="1" as="geometry">
            <mxPoint x="140" y="40" as="sourcePoint" />
            <mxPoint x="80" as="targetPoint" />
          </mxGeometry>
        </mxCell>
        <mxCell id="7EMkF2CWvbv4STOrUGdc-74" value="" style="endArrow=none;html=1;rounded=0;entryX=1;entryY=0.5;entryDx=0;entryDy=0;exitX=1;exitY=1;exitDx=0;exitDy=0;" parent="7EMkF2CWvbv4STOrUGdc-71" edge="1">
          <mxGeometry width="50" height="50" relative="1" as="geometry">
            <mxPoint x="80" y="80" as="sourcePoint" />
            <mxPoint x="140" y="40" as="targetPoint" />
          </mxGeometry>
        </mxCell>
        <mxCell id="7EMkF2CWvbv4STOrUGdc-75" value="" style="endArrow=none;html=1;rounded=0;entryX=1;entryY=1;entryDx=0;entryDy=0;exitX=0;exitY=1;exitDx=0;exitDy=0;" parent="7EMkF2CWvbv4STOrUGdc-71" edge="1">
          <mxGeometry width="50" height="50" relative="1" as="geometry">
            <mxPoint y="80" as="sourcePoint" />
            <mxPoint x="80" y="80" as="targetPoint" />
          </mxGeometry>
        </mxCell>
        <mxCell id="7EMkF2CWvbv4STOrUGdc-76" value="" style="endArrow=none;html=1;rounded=0;exitX=0;exitY=1;exitDx=0;exitDy=0;entryX=0;entryY=0;entryDx=0;entryDy=0;" parent="7EMkF2CWvbv4STOrUGdc-71" edge="1">
          <mxGeometry width="50" height="50" relative="1" as="geometry">
            <mxPoint y="80" as="sourcePoint" />
            <mxPoint as="targetPoint" />
          </mxGeometry>
        </mxCell>
        <mxCell id="7EMkF2CWvbv4STOrUGdc-77" value="&lt;p style=&quot;margin: 0px; font-variant-numeric: normal; font-variant-east-asian: normal; font-variant-alternates: normal; font-size-adjust: none; font-kerning: auto; font-optical-sizing: auto; font-feature-settings: normal; font-variation-settings: normal; font-variant-position: normal; font-stretch: normal; line-height: normal; font-family: Monaco; text-align: start;&quot; class=&quot;p1&quot;&gt;$$\sigma(x)=\frac{1}{1+e^{-x}}$$&lt;/p&gt;" style="text;html=1;align=center;verticalAlign=middle;whiteSpace=wrap;rounded=0;" parent="7EMkF2CWvbv4STOrUGdc-71" vertex="1">
          <mxGeometry x="30" y="25" width="60" height="30" as="geometry" />
        </mxCell>
        <mxCell id="7EMkF2CWvbv4STOrUGdc-78" value="Aktivierungsfunktion" style="text;html=1;align=center;verticalAlign=middle;whiteSpace=wrap;rounded=0;fontSize=16;" parent="1" vertex="1">
          <mxGeometry x="565" y="1038" width="90" height="30" as="geometry" />
        </mxCell>
        <mxCell id="7EMkF2CWvbv4STOrUGdc-79" value="" style="group;fillColor=default;" parent="1" vertex="1" connectable="0">
          <mxGeometry x="780" y="968" width="140" height="80" as="geometry" />
        </mxCell>
        <mxCell id="7EMkF2CWvbv4STOrUGdc-80" value="" style="endArrow=none;html=1;rounded=0;entryX=0;entryY=0;entryDx=0;entryDy=0;exitX=1;exitY=0;exitDx=0;exitDy=0;" parent="7EMkF2CWvbv4STOrUGdc-79" edge="1">
          <mxGeometry width="50" height="50" relative="1" as="geometry">
            <mxPoint x="80" as="sourcePoint" />
            <mxPoint as="targetPoint" />
          </mxGeometry>
        </mxCell>
        <mxCell id="7EMkF2CWvbv4STOrUGdc-81" value="" style="endArrow=none;html=1;rounded=0;entryX=1;entryY=0;entryDx=0;entryDy=0;exitX=1;exitY=0.5;exitDx=0;exitDy=0;" parent="7EMkF2CWvbv4STOrUGdc-79" edge="1">
          <mxGeometry width="50" height="50" relative="1" as="geometry">
            <mxPoint x="140" y="40" as="sourcePoint" />
            <mxPoint x="80" as="targetPoint" />
          </mxGeometry>
        </mxCell>
        <mxCell id="7EMkF2CWvbv4STOrUGdc-82" value="" style="endArrow=none;html=1;rounded=0;entryX=1;entryY=0.5;entryDx=0;entryDy=0;exitX=1;exitY=1;exitDx=0;exitDy=0;" parent="7EMkF2CWvbv4STOrUGdc-79" edge="1">
          <mxGeometry width="50" height="50" relative="1" as="geometry">
            <mxPoint x="80" y="80" as="sourcePoint" />
            <mxPoint x="140" y="40" as="targetPoint" />
          </mxGeometry>
        </mxCell>
        <mxCell id="7EMkF2CWvbv4STOrUGdc-83" value="" style="endArrow=none;html=1;rounded=0;entryX=1;entryY=1;entryDx=0;entryDy=0;exitX=0;exitY=1;exitDx=0;exitDy=0;" parent="7EMkF2CWvbv4STOrUGdc-79" edge="1">
          <mxGeometry width="50" height="50" relative="1" as="geometry">
            <mxPoint y="80" as="sourcePoint" />
            <mxPoint x="80" y="80" as="targetPoint" />
          </mxGeometry>
        </mxCell>
        <mxCell id="7EMkF2CWvbv4STOrUGdc-84" value="" style="endArrow=none;html=1;rounded=0;exitX=0;exitY=1;exitDx=0;exitDy=0;entryX=0;entryY=0;entryDx=0;entryDy=0;" parent="7EMkF2CWvbv4STOrUGdc-79" edge="1">
          <mxGeometry width="50" height="50" relative="1" as="geometry">
            <mxPoint y="80" as="sourcePoint" />
            <mxPoint as="targetPoint" />
          </mxGeometry>
        </mxCell>
        <mxCell id="7EMkF2CWvbv4STOrUGdc-85" value="x" style="text;html=1;align=center;verticalAlign=middle;whiteSpace=wrap;rounded=0;" parent="7EMkF2CWvbv4STOrUGdc-79" vertex="1">
          <mxGeometry x="20" y="25" width="60" height="30" as="geometry" />
        </mxCell>
        <mxCell id="7EMkF2CWvbv4STOrUGdc-86" value="" style="endArrow=none;html=1;rounded=0;exitX=1;exitY=0.5;exitDx=0;exitDy=0;" parent="1" source="7EMkF2CWvbv4STOrUGdc-68" edge="1">
          <mxGeometry width="50" height="50" relative="1" as="geometry">
            <mxPoint x="750" y="1058" as="sourcePoint" />
            <mxPoint x="540" y="998" as="targetPoint" />
          </mxGeometry>
        </mxCell>
        <mxCell id="7EMkF2CWvbv4STOrUGdc-87" value="" style="endArrow=none;html=1;rounded=0;" parent="1" edge="1">
          <mxGeometry width="50" height="50" relative="1" as="geometry">
            <mxPoint x="680" y="998" as="sourcePoint" />
            <mxPoint x="780" y="998" as="targetPoint" />
          </mxGeometry>
        </mxCell>
        <mxCell id="7EMkF2CWvbv4STOrUGdc-88" value="" style="ellipse;whiteSpace=wrap;html=1;aspect=fixed;" parent="1" vertex="1">
          <mxGeometry x="141" y="978" width="80" height="80" as="geometry" />
        </mxCell>
        <mxCell id="7EMkF2CWvbv4STOrUGdc-89" value="Eingabe 2" style="text;html=1;align=center;verticalAlign=middle;whiteSpace=wrap;rounded=0;fontSize=16;" parent="1" vertex="1">
          <mxGeometry x="136" y="1058" width="90" height="30" as="geometry" />
        </mxCell>
        <mxCell id="7EMkF2CWvbv4STOrUGdc-90" value="" style="endArrow=none;html=1;rounded=0;exitX=1;exitY=0.5;exitDx=0;exitDy=0;entryX=0.5;entryY=1;entryDx=0;entryDy=0;edgeStyle=orthogonalEdgeStyle;" parent="1" source="7EMkF2CWvbv4STOrUGdc-88" edge="1" target="7EMkF2CWvbv4STOrUGdc-69">
          <mxGeometry width="50" height="50" relative="1" as="geometry">
            <mxPoint x="541" y="1088" as="sourcePoint" />
            <mxPoint x="351" y="1018" as="targetPoint" />
            <Array as="points">
              <mxPoint x="260" y="1018" />
              <mxPoint x="260" y="1070" />
              <mxPoint x="365" y="1070" />
            </Array>
          </mxGeometry>
        </mxCell>
        <mxCell id="7EMkF2CWvbv4STOrUGdc-91" value="" style="endArrow=none;html=1;rounded=0;entryX=0;entryY=0.5;entryDx=0;entryDy=0;" parent="1" target="7EMkF2CWvbv4STOrUGdc-88" edge="1">
          <mxGeometry width="50" height="50" relative="1" as="geometry">
            <mxPoint x="1" y="1018" as="sourcePoint" />
            <mxPoint x="541" y="1088" as="targetPoint" />
          </mxGeometry>
        </mxCell>
        <mxCell id="7EMkF2CWvbv4STOrUGdc-95" value="" style="group;fillColor=default;" parent="1" vertex="1" connectable="0">
          <mxGeometry x="540" y="818" width="140" height="80" as="geometry" />
        </mxCell>
        <mxCell id="7EMkF2CWvbv4STOrUGdc-96" value="" style="endArrow=none;html=1;rounded=0;entryX=0;entryY=0;entryDx=0;entryDy=0;exitX=1;exitY=0;exitDx=0;exitDy=0;" parent="7EMkF2CWvbv4STOrUGdc-95" edge="1">
          <mxGeometry width="50" height="50" relative="1" as="geometry">
            <mxPoint x="80" as="sourcePoint" />
            <mxPoint as="targetPoint" />
          </mxGeometry>
        </mxCell>
        <mxCell id="7EMkF2CWvbv4STOrUGdc-97" value="" style="endArrow=none;html=1;rounded=0;entryX=1;entryY=0;entryDx=0;entryDy=0;exitX=1;exitY=0.5;exitDx=0;exitDy=0;" parent="7EMkF2CWvbv4STOrUGdc-95" edge="1">
          <mxGeometry width="50" height="50" relative="1" as="geometry">
            <mxPoint x="140" y="40" as="sourcePoint" />
            <mxPoint x="80" as="targetPoint" />
          </mxGeometry>
        </mxCell>
        <mxCell id="7EMkF2CWvbv4STOrUGdc-98" value="" style="endArrow=none;html=1;rounded=0;entryX=1;entryY=0.5;entryDx=0;entryDy=0;exitX=1;exitY=1;exitDx=0;exitDy=0;" parent="7EMkF2CWvbv4STOrUGdc-95" edge="1">
          <mxGeometry width="50" height="50" relative="1" as="geometry">
            <mxPoint x="80" y="80" as="sourcePoint" />
            <mxPoint x="140" y="40" as="targetPoint" />
          </mxGeometry>
        </mxCell>
        <mxCell id="7EMkF2CWvbv4STOrUGdc-99" value="" style="endArrow=none;html=1;rounded=0;entryX=1;entryY=1;entryDx=0;entryDy=0;exitX=0;exitY=1;exitDx=0;exitDy=0;" parent="7EMkF2CWvbv4STOrUGdc-95" edge="1">
          <mxGeometry width="50" height="50" relative="1" as="geometry">
            <mxPoint y="80" as="sourcePoint" />
            <mxPoint x="80" y="80" as="targetPoint" />
          </mxGeometry>
        </mxCell>
        <mxCell id="7EMkF2CWvbv4STOrUGdc-100" value="" style="endArrow=none;html=1;rounded=0;exitX=0;exitY=1;exitDx=0;exitDy=0;entryX=0;entryY=0;entryDx=0;entryDy=0;" parent="7EMkF2CWvbv4STOrUGdc-95" edge="1">
          <mxGeometry width="50" height="50" relative="1" as="geometry">
            <mxPoint y="80" as="sourcePoint" />
            <mxPoint as="targetPoint" />
          </mxGeometry>
        </mxCell>
        <mxCell id="7EMkF2CWvbv4STOrUGdc-101" value="&lt;p style=&quot;margin: 0px; font-variant-numeric: normal; font-variant-east-asian: normal; font-variant-alternates: normal; font-size-adjust: none; font-kerning: auto; font-optical-sizing: auto; font-feature-settings: normal; font-variation-settings: normal; font-variant-position: normal; font-stretch: normal; line-height: normal; font-family: Monaco; text-align: start;&quot; class=&quot;p1&quot;&gt;$$\sigma`(x)=\sigma(x)(1-\sigma(x))$$&lt;/p&gt;" style="text;html=1;align=center;verticalAlign=middle;whiteSpace=wrap;rounded=0;fontSize=10;" parent="7EMkF2CWvbv4STOrUGdc-95" vertex="1">
          <mxGeometry x="35" y="25" width="60" height="30" as="geometry" />
        </mxCell>
        <mxCell id="7EMkF2CWvbv4STOrUGdc-102" value="Aktivierungsfunktion&lt;div&gt;Ableitung&lt;/div&gt;" style="text;html=1;align=center;verticalAlign=middle;whiteSpace=wrap;rounded=0;fontSize=16;" parent="1" vertex="1">
          <mxGeometry x="565" y="908" width="90" height="30" as="geometry" />
        </mxCell>
        <mxCell id="7EMkF2CWvbv4STOrUGdc-103" value="" style="endArrow=none;html=1;rounded=0;edgeStyle=orthogonalEdgeStyle;exitX=1;exitY=0.5;exitDx=0;exitDy=0;" parent="1" source="7EMkF2CWvbv4STOrUGdc-68" edge="1">
          <mxGeometry width="50" height="50" relative="1" as="geometry">
            <mxPoint x="430" y="998" as="sourcePoint" />
            <mxPoint x="540" y="858" as="targetPoint" />
            <Array as="points">
              <mxPoint x="490" y="998" />
              <mxPoint x="490" y="858" />
            </Array>
          </mxGeometry>
        </mxCell>
        <mxCell id="7EMkF2CWvbv4STOrUGdc-104" value="" style="group;fillColor=default;" parent="1" vertex="1" connectable="0">
          <mxGeometry x="1260" y="829" width="140" height="80" as="geometry" />
        </mxCell>
        <mxCell id="7EMkF2CWvbv4STOrUGdc-105" value="" style="endArrow=none;html=1;rounded=0;entryX=0;entryY=0;entryDx=0;entryDy=0;exitX=1;exitY=0;exitDx=0;exitDy=0;" parent="7EMkF2CWvbv4STOrUGdc-104" edge="1">
          <mxGeometry width="50" height="50" relative="1" as="geometry">
            <mxPoint x="80" as="sourcePoint" />
            <mxPoint as="targetPoint" />
          </mxGeometry>
        </mxCell>
        <mxCell id="7EMkF2CWvbv4STOrUGdc-106" value="" style="endArrow=none;html=1;rounded=0;entryX=1;entryY=0;entryDx=0;entryDy=0;exitX=1;exitY=0.5;exitDx=0;exitDy=0;" parent="7EMkF2CWvbv4STOrUGdc-104" edge="1">
          <mxGeometry width="50" height="50" relative="1" as="geometry">
            <mxPoint x="140" y="40" as="sourcePoint" />
            <mxPoint x="80" as="targetPoint" />
          </mxGeometry>
        </mxCell>
        <mxCell id="7EMkF2CWvbv4STOrUGdc-107" value="" style="endArrow=none;html=1;rounded=0;entryX=1;entryY=0.5;entryDx=0;entryDy=0;exitX=1;exitY=1;exitDx=0;exitDy=0;" parent="7EMkF2CWvbv4STOrUGdc-104" edge="1">
          <mxGeometry width="50" height="50" relative="1" as="geometry">
            <mxPoint x="80" y="80" as="sourcePoint" />
            <mxPoint x="140" y="40" as="targetPoint" />
          </mxGeometry>
        </mxCell>
        <mxCell id="7EMkF2CWvbv4STOrUGdc-108" value="" style="endArrow=none;html=1;rounded=0;entryX=1;entryY=1;entryDx=0;entryDy=0;exitX=0;exitY=1;exitDx=0;exitDy=0;" parent="7EMkF2CWvbv4STOrUGdc-104" edge="1">
          <mxGeometry width="50" height="50" relative="1" as="geometry">
            <mxPoint y="80" as="sourcePoint" />
            <mxPoint x="80" y="80" as="targetPoint" />
          </mxGeometry>
        </mxCell>
        <mxCell id="7EMkF2CWvbv4STOrUGdc-109" value="" style="endArrow=none;html=1;rounded=0;exitX=0;exitY=1;exitDx=0;exitDy=0;entryX=0;entryY=0;entryDx=0;entryDy=0;" parent="7EMkF2CWvbv4STOrUGdc-104" edge="1">
          <mxGeometry width="50" height="50" relative="1" as="geometry">
            <mxPoint y="80" as="sourcePoint" />
            <mxPoint as="targetPoint" />
          </mxGeometry>
        </mxCell>
        <mxCell id="7EMkF2CWvbv4STOrUGdc-110" value="x" style="text;html=1;align=center;verticalAlign=middle;whiteSpace=wrap;rounded=0;" parent="7EMkF2CWvbv4STOrUGdc-104" vertex="1">
          <mxGeometry x="20" y="25" width="60" height="30" as="geometry" />
        </mxCell>
        <mxCell id="7EMkF2CWvbv4STOrUGdc-111" value="" style="endArrow=none;html=1;rounded=0;" parent="1" edge="1">
          <mxGeometry width="50" height="50" relative="1" as="geometry">
            <mxPoint x="680" y="858" as="sourcePoint" />
            <mxPoint x="1260" y="858" as="targetPoint" />
          </mxGeometry>
        </mxCell>
        <mxCell id="7EMkF2CWvbv4STOrUGdc-112" value="" style="triangle;whiteSpace=wrap;html=1;" parent="1" vertex="1">
          <mxGeometry x="1115" y="968" width="60" height="80" as="geometry" />
        </mxCell>
        <mxCell id="7EMkF2CWvbv4STOrUGdc-113" value="&lt;p style=&quot;margin: 0px; font-variant-numeric: normal; font-variant-east-asian: normal; font-variant-alternates: normal; font-size-adjust: none; font-kerning: auto; font-optical-sizing: auto; font-feature-settings: normal; font-variation-settings: normal; font-variant-position: normal; font-stretch: normal; font-size: 12px; line-height: normal; font-family: Monaco; text-align: start;&quot; class=&quot;p1&quot;&gt;$$\sum_{j\neq i} W_{ij}\rho(u_j)+b_i$$&lt;/p&gt;" style="text;html=1;align=center;verticalAlign=middle;whiteSpace=wrap;rounded=0;fontSize=16;" parent="1" vertex="1">
          <mxGeometry x="1100" y="1058" width="90" height="30" as="geometry" />
        </mxCell>
        <mxCell id="7EMkF2CWvbv4STOrUGdc-114" value="" style="ellipse;whiteSpace=wrap;html=1;aspect=fixed;" parent="1" vertex="1">
          <mxGeometry x="135" y="1128" width="80" height="80" as="geometry" />
        </mxCell>
        <mxCell id="7EMkF2CWvbv4STOrUGdc-115" value="Bias 2" style="text;html=1;align=center;verticalAlign=middle;whiteSpace=wrap;rounded=0;fontSize=16;" parent="1" vertex="1">
          <mxGeometry x="134" y="1208" width="90" height="30" as="geometry" />
        </mxCell>
        <mxCell id="7EMkF2CWvbv4STOrUGdc-116" value="" style="endArrow=none;html=1;rounded=0;exitX=1;exitY=0.5;exitDx=0;exitDy=0;entryX=0;entryY=0.25;entryDx=0;entryDy=0;edgeStyle=orthogonalEdgeStyle;" parent="1" source="7EMkF2CWvbv4STOrUGdc-114" target="7EMkF2CWvbv4STOrUGdc-112" edge="1">
          <mxGeometry width="50" height="50" relative="1" as="geometry">
            <mxPoint x="580" y="1048" as="sourcePoint" />
            <mxPoint x="630" y="998" as="targetPoint" />
            <Array as="points">
              <mxPoint x="1020" y="1168" />
              <mxPoint x="1020" y="988" />
            </Array>
          </mxGeometry>
        </mxCell>
        <mxCell id="7EMkF2CWvbv4STOrUGdc-117" value="" style="endArrow=none;html=1;rounded=0;entryX=0;entryY=0.5;entryDx=0;entryDy=0;" parent="1" target="7EMkF2CWvbv4STOrUGdc-114" edge="1">
          <mxGeometry width="50" height="50" relative="1" as="geometry">
            <mxPoint y="1167.57" as="sourcePoint" />
            <mxPoint x="130" y="1168" as="targetPoint" />
          </mxGeometry>
        </mxCell>
        <mxCell id="7EMkF2CWvbv4STOrUGdc-119" value="" style="endArrow=none;html=1;rounded=0;exitX=1;exitY=0.5;exitDx=0;exitDy=0;edgeStyle=orthogonalEdgeStyle;" parent="1" source="7EMkF2CWvbv4STOrUGdc-112" edge="1">
          <mxGeometry width="50" height="50" relative="1" as="geometry">
            <mxPoint x="1150" y="1038" as="sourcePoint" />
            <mxPoint x="1260" y="888" as="targetPoint" />
            <Array as="points">
              <mxPoint x="1210" y="1008" />
              <mxPoint x="1210" y="888" />
            </Array>
          </mxGeometry>
        </mxCell>
        <mxCell id="7EMkF2CWvbv4STOrUGdc-120" value="+" style="text;html=1;align=center;verticalAlign=middle;whiteSpace=wrap;rounded=0;" parent="1" vertex="1">
          <mxGeometry x="1115" y="978" width="15" height="20" as="geometry" />
        </mxCell>
        <mxCell id="7EMkF2CWvbv4STOrUGdc-121" value="+" style="text;html=1;align=center;verticalAlign=middle;whiteSpace=wrap;rounded=0;" parent="1" vertex="1">
          <mxGeometry x="1115" y="1018" width="15" height="20" as="geometry" />
        </mxCell>
        <mxCell id="7EMkF2CWvbv4STOrUGdc-122" value="" style="triangle;whiteSpace=wrap;html=1;flipH=1;" parent="1" vertex="1">
          <mxGeometry x="350" y="749" width="60" height="80" as="geometry" />
        </mxCell>
        <mxCell id="7EMkF2CWvbv4STOrUGdc-123" value="+" style="text;html=1;align=center;verticalAlign=middle;whiteSpace=wrap;rounded=0;" parent="1" vertex="1">
          <mxGeometry x="395" y="759" width="15" height="20" as="geometry" />
        </mxCell>
        <mxCell id="7EMkF2CWvbv4STOrUGdc-124" value="-" style="text;html=1;align=center;verticalAlign=middle;whiteSpace=wrap;rounded=0;" parent="1" vertex="1">
          <mxGeometry x="395" y="799" width="15" height="20" as="geometry" />
        </mxCell>
        <mxCell id="7EMkF2CWvbv4STOrUGdc-125" value="" style="endArrow=none;html=1;rounded=0;entryX=1;entryY=0.5;entryDx=0;entryDy=0;edgeStyle=orthogonalEdgeStyle;" parent="1" target="7EMkF2CWvbv4STOrUGdc-123" edge="1">
          <mxGeometry width="50" height="50" relative="1" as="geometry">
            <mxPoint x="1400" y="868" as="sourcePoint" />
            <mxPoint x="1190" y="678" as="targetPoint" />
            <Array as="points">
              <mxPoint x="1450" y="868" />
              <mxPoint x="1450" y="769" />
            </Array>
          </mxGeometry>
        </mxCell>
        <mxCell id="7EMkF2CWvbv4STOrUGdc-126" value="" style="endArrow=none;html=1;rounded=0;entryX=1;entryY=0.25;entryDx=0;entryDy=0;exitX=1;exitY=0.5;exitDx=0;exitDy=0;edgeStyle=orthogonalEdgeStyle;" parent="1" source="7EMkF2CWvbv4STOrUGdc-68" target="7EMkF2CWvbv4STOrUGdc-124" edge="1">
          <mxGeometry width="50" height="50" relative="1" as="geometry">
            <mxPoint x="560" y="898" as="sourcePoint" />
            <mxPoint x="610" y="848" as="targetPoint" />
            <Array as="points">
              <mxPoint x="490" y="998" />
              <mxPoint x="490" y="804" />
            </Array>
          </mxGeometry>
        </mxCell>
        <mxCell id="7EMkF2CWvbv4STOrUGdc-127" value="" style="endArrow=none;html=1;rounded=0;entryX=0;entryY=0.5;entryDx=0;entryDy=0;exitX=0;exitY=0.5;exitDx=0;exitDy=0;edgeStyle=orthogonalEdgeStyle;" parent="1" source="7EMkF2CWvbv4STOrUGdc-69" target="7EMkF2CWvbv4STOrUGdc-122" edge="1">
          <mxGeometry width="50" height="50" relative="1" as="geometry">
            <mxPoint x="380" y="968" as="sourcePoint" />
            <mxPoint x="430" y="918" as="targetPoint" />
            <Array as="points">
              <mxPoint x="290" y="998" />
              <mxPoint x="290" y="789" />
            </Array>
          </mxGeometry>
        </mxCell>
        <mxCell id="7EMkF2CWvbv4STOrUGdc-128" value="" style="endArrow=none;html=1;rounded=0;entryX=1;entryY=0.5;entryDx=0;entryDy=0;edgeStyle=orthogonalEdgeStyle;" parent="1" target="7EMkF2CWvbv4STOrUGdc-19" edge="1">
          <mxGeometry width="50" height="50" relative="1" as="geometry">
            <mxPoint x="780" y="1029" as="sourcePoint" />
            <mxPoint x="660" y="809" as="targetPoint" />
            <Array as="points">
              <mxPoint x="710" y="1029" />
              <mxPoint x="710" y="579" />
            </Array>
          </mxGeometry>
        </mxCell>
        <mxCell id="7EMkF2CWvbv4STOrUGdc-129" value="" style="endArrow=none;html=1;rounded=0;exitX=0;exitY=0.5;exitDx=0;exitDy=0;edgeStyle=orthogonalEdgeStyle;" parent="1" source="7EMkF2CWvbv4STOrUGdc-121" edge="1">
          <mxGeometry width="50" height="50" relative="1" as="geometry">
            <mxPoint x="1070" y="1089" as="sourcePoint" />
            <mxPoint x="920" y="259" as="targetPoint" />
            <Array as="points">
              <mxPoint x="1070" y="1028" />
              <mxPoint x="1070" y="259" />
            </Array>
          </mxGeometry>
        </mxCell>
        <mxCell id="7EMkF2CWvbv4STOrUGdc-130" value="" style="endArrow=none;html=1;rounded=0;entryX=0;entryY=0.5;entryDx=0;entryDy=0;edgeStyle=orthogonalEdgeStyle;" parent="1" target="7EMkF2CWvbv4STOrUGdc-56" edge="1">
          <mxGeometry width="50" height="50" relative="1" as="geometry">
            <mxPoint x="920" y="1009" as="sourcePoint" />
            <mxPoint x="780" y="639" as="targetPoint" />
            <Array as="points">
              <mxPoint x="970" y="1010" />
              <mxPoint x="970" y="279" />
            </Array>
          </mxGeometry>
        </mxCell>
      </root>
    </mxGraphModel>
  </diagram>
</mxfile>
